<svg xmlns="http://www.w3.org/2000/svg" width="41" height="37" fill="none"><path fill="#ffffff" fill-opacity=".8" fill-rule="evenodd" d="M14.0575.465759c-2.3128 0-4.53084.808891-6.16622 2.248721L0 9.66214v3.18016c0 2.2468 1.09618 4.2682 2.84336 5.6722C1.09618 19.9185 0 21.9399 0 24.1867v3.1802l7.89128 6.9477c1.63538 1.4399 3.85342 2.2487 6.16622 2.2487 2.5519 0 4.8478-.9651 6.4425-2.5034 1.5947 1.5383 3.8906 2.5034 6.4425 2.5034 2.3128 0 4.5308-.8088 6.1662-2.2487L41 27.3669v-3.1802c0-2.2468-1.0961-4.2682-2.8433-5.6722C39.9039 17.1105 41 15.0891 41 12.8423V9.66214l-7.8913-6.94766C31.4733 1.27465 29.2553.465759 26.9425.465759c-2.5519 0-4.8478.965101-6.4425 2.503371C18.9053 1.43086 16.6094.465759 14.0575.465759ZM26.4028 18.5145c-.0983-.0789-.1948-.1601-.2893-.2433L20.5 13.3289l-5.6135 4.9423c-.0945.0832-.191.1644-.2893.2433.0983.079.1948.1601.2893.2433L20.5 23.7001l5.6135-4.9423c.0945-.0832.191-.1643.2893-.2433Zm-3.625 8.8524v1.5188c0 2.0251 1.8646 3.6668 4.1647 3.6668 1.1046 0 2.1639-.3863 2.945-1.074l6.557-5.773v-1.5188c0-2.0251-1.8647-3.6668-4.1648-3.6668-1.1045 0-2.1639.3864-2.9449 1.074l-6.557 5.773Zm-4.5556 0-6.557-5.773c-.781-.6876-1.84033-1.074-2.94489-1.074-2.30013 0-4.16476 1.6417-4.16476 3.6668v1.5188l6.55695 5.773c.7811.6877 1.8404 1.074 2.945 1.074 2.3001 0 4.1647-1.6417 4.1647-3.6668v-1.5188Zm0-19.22353v1.51877l-6.557 5.77296c-.781.6877-1.84033 1.074-2.94489 1.074-2.30013 0-4.16476-1.6417-4.16476-3.6668v-1.5188l6.55695-5.77293c.7811-.68765 1.8404-1.07397 2.945-1.07397 2.3001 0 4.1647 1.64167 4.1647 3.66677Zm11.1126 7.29173-6.557-5.77296V8.14337c0-2.0251 1.8646-3.66677 4.1647-3.66677 1.1046 0 2.1639.38632 2.945 1.07397l6.557 5.77293v1.5188c0 2.0251-1.8647 3.6668-4.1648 3.6668-1.1045 0-2.1639-.3863-2.9449-1.074Z" clip-rule="evenodd"/></svg>