

<svg fill="#000000" height="24px" width="24px" version="1.1" id="Layer_1" xmlns="http://www.w3.org/2000/svg" xmlns:xlink="http://www.w3.org/1999/xlink" 
	 viewBox="0 0 512 512" xml:space="preserve">

		<path d="M502.974,241.164l-137.096-71.392l-52.207,52.207v-0.001c-5.799-9.705-13.944-17.96-23.759-23.649l52.316-52.317
			L270.837,9.027c-6.256-12.031-23.413-12.04-29.675,0l-71.391,136.984l52.316,52.317c-9.815,5.801-17.96,13.944-23.759,23.76
			l-52.318-52.317L9.026,241.164c-12.029,6.255-12.04,23.412,0,29.673l136.984,71.392l52.318-52.316
			c5.799,9.815,13.944,17.96,23.759,23.759l-52.316,52.317l71.391,136.984c6.256,12.031,23.413,12.04,29.675,0l71.391-136.984
			l-52.316-52.317c9.815-5.688,17.96-13.944,23.759-23.649v-0.001l52.207,52.207l137.096-71.392
			C515.003,264.582,515.014,247.424,502.974,241.164z M255.999,289.465c-18.585,0-33.465-15.192-33.465-33.465
			c0-18.268,14.872-33.465,33.465-33.465c18.382,0,33.465,15.01,33.465,33.465C289.464,274.342,274.491,289.465,255.999,289.465z"/>

</svg>